<?xml version="1.0" standalone="no"?>
<!DOCTYPE svg PUBLIC "-//W3C//DTD SVG 20010904//EN"
 "http://www.w3.org/TR/2001/REC-SVG-20010904/DTD/svg10.dtd">
<svg version="1.0" xmlns="http://www.w3.org/2000/svg"
 width="603.000000pt" height="603.000000pt" viewBox="0 0 603.000000 603.000000"
 preserveAspectRatio="xMidYMid meet">
<metadata>
Created by potrace 1.11, written by Peter Selinger 2001-2013
</metadata>
<g transform="translate(0.000000,603.000000) scale(0.100000,-0.100000)"
fill="#000000" stroke="none">
<path d="M2575 6011 c-341 -99 -484 -476 -292 -771 69 -105 207 -197 327 -218
55 -10 158 -9 215 2 50 11 169 73 216 114 152 135 211 362 144 553 -49 138
-156 247 -299 304 -90 35 -221 42 -311 16z m151 -100 c-2 -3 0 -15 4 -27 6
-15 20 -23 48 -28 67 -10 132 -82 132 -144 0 -16 -7 -19 -40 -18 -26 1 -40 6
-40 14 0 45 -80 114 -98 85 -4 -6 -7 -55 -7 -109 l1 -99 58 -20 c109 -38 151
-95 140 -190 -10 -86 -67 -149 -147 -162 -37 -6 -63 -34 -50 -56 10 -16 -8
-45 -26 -40 -14 3 -17 13 -16 43 2 39 2 39 -49 51 -89 21 -130 62 -145 146
-10 53 -5 61 37 57 42 -3 42 -4 40 -11 -1 -5 1 -24 5 -44 9 -42 40 -74 82 -83
l31 -7 -1 121 0 121 -40 10 c-95 25 -145 81 -145 161 0 99 60 169 155 181 25
3 30 8 29 28 -1 13 3 27 9 31 12 7 39 -1 33 -11z"/>
<path d="M2630 5782 c-26 -13 -37 -27 -46 -57 -17 -60 14 -109 81 -129 19 -5
20 -1 20 99 0 65 -3 105 -10 105 -5 0 -26 -8 -45 -18z"/>
<path d="M2729 5468 c0 -18 -1 -68 -2 -112 -2 -90 5 -98 59 -72 41 19 64 65
58 115 -6 42 -27 68 -73 87 -43 18 -41 19 -42 -18z"/>
<path d="M3865 5099 c-98 -21 -225 -80 -271 -124 -7 -6 -25 -22 -40 -36 -121
-102 -208 -280 -220 -452 -24 -320 179 -610 491 -702 88 -26 252 -29 341 -6
262 68 447 257 504 517 77 353 -143 707 -495 799 -89 24 -216 25 -310 4z m172
-150 c0 -13 1 -29 2 -36 1 -6 24 -16 51 -22 90 -19 144 -61 174 -133 25 -58
21 -85 -11 -89 -56 -8 -72 0 -83 41 -9 33 -57 88 -78 91 -4 0 -17 2 -29 5 -27
5 -25 15 -27 -157 l-1 -127 70 -22 c126 -41 176 -86 192 -176 12 -62 -4 -145
-36 -197 -37 -60 -80 -84 -202 -111 -24 -5 -25 -9 -22 -61 l3 -55 -30 0 c-30
0 -30 0 -30 58 l0 57 -36 3 c-55 4 -130 41 -168 83 -36 39 -55 89 -59 156 l-2
38 52 0 51 0 6 -45 c11 -80 57 -131 129 -144 25 -4 26 -3 29 52 2 31 2 105 0
163 l-3 106 -54 13 c-59 14 -123 52 -153 91 -28 35 -45 106 -38 156 15 110 94
191 201 207 22 3 41 5 43 6 1 0 2 17 2 38 0 36 2 39 28 37 21 -1 27 -6 29 -26z"/>
<path d="M3922 4799 c-41 -12 -86 -77 -84 -123 3 -69 35 -109 110 -134 l32
-11 0 140 c0 150 2 145 -58 128z"/>
<path d="M4039 4398 c-1 -17 -1 -258 0 -280 1 -10 9 -18 18 -18 33 0 99 40
117 72 26 43 26 123 1 161 -27 41 -134 93 -136 65z"/>
<path d="M2355 4532 c-125 -14 -340 -100 -430 -174 -135 -109 -242 -258 -294
-408 -41 -116 -50 -184 -46 -325 5 -173 50 -315 143 -451 51 -75 122 -155 131
-149 11 6 197 54 235 60 17 3 42 7 56 10 49 9 125 18 157 19 42 1 33 11 -21
25 -52 13 -121 63 -154 111 -35 52 -70 194 -53 217 9 12 131 11 131 -2 3 -82
37 -165 81 -196 17 -12 52 -27 80 -34 l49 -13 -2 210 -3 211 -67 18 c-166 46
-250 140 -249 282 0 90 26 153 91 217 58 59 126 90 196 90 33 0 33 0 36 53 3
51 3 52 36 53 34 0 35 -1 34 -58 -1 -40 0 -41 72 -53 101 -17 191 -90 225
-180 21 -56 27 -104 14 -106 -43 -4 -111 -1 -121 5 -6 4 -12 17 -12 29 0 27
-36 87 -64 107 -24 18 -75 38 -97 39 -14 1 -16 -22 -16 -183 l0 -185 39 -15
c21 -9 43 -16 49 -16 6 0 45 -16 86 -35 120 -55 163 -117 165 -235 3 -186 -67
-293 -222 -336 l-45 -12 35 -2 c123 -6 276 -31 415 -66 l60 -16 44 49 c94 104
178 275 197 403 3 19 7 41 10 49 7 21 6 198 -1 246 -35 228 -169 449 -355 586
-90 66 -234 128 -351 150 -63 11 -205 17 -264 11z"/>
<path d="M2327 4116 c-92 -46 -120 -184 -52 -264 22 -26 132 -79 142 -68 2 2
4 64 4 137 0 243 3 219 -28 217 -15 -2 -45 -11 -66 -22z"/>
<path d="M2496 3608 c-3 -7 -4 -96 -3 -198 l2 -185 35 3 c52 4 101 34 135 81
26 37 30 51 30 110 0 86 -27 131 -100 165 -71 34 -94 40 -99 24z"/>
<path d="M4428 3141 c-138 -37 -274 -120 -407 -248 -47 -45 -90 -79 -96 -75
-5 3 -38 29 -72 58 -33 29 -86 68 -117 88 -71 45 -263 139 -339 165 l-57 19
-39 -66 c-21 -37 -51 -89 -66 -117 -16 -27 -33 -58 -39 -67 -12 -19 -36 -23
-51 -9 -13 12 -241 67 -330 80 -94 14 -234 24 -320 24 -80 0 -280 -12 -298
-18 -7 -2 -29 -7 -50 -10 -82 -12 -196 -38 -279 -65 l-88 -28 -97 132 c-53 72
-98 133 -99 135 -8 11 -250 -87 -354 -143 -153 -82 -319 -200 -417 -295 -57
-55 -82 -62 -113 -31 -45 45 -53 120 -19 180 24 42 45 53 109 59 27 3 -33 29
-81 36 -116 16 -218 -96 -224 -245 -2 -74 7 -111 43 -158 21 -29 68 -65 95
-75 5 -1 -9 -36 -31 -77 -45 -84 -95 -227 -111 -316 -6 -32 -13 -72 -16 -89
-4 -16 -8 -97 -10 -180 -8 -309 63 -548 209 -698 28 -29 36 -46 40 -89 8 -71
12 -96 30 -213 53 -328 132 -567 245 -742 l41 -63 335 0 336 0 -5 33 c-17 115
-27 316 -18 380 3 19 9 26 18 23 22 -9 292 -54 364 -61 36 -4 79 -9 95 -11
150 -18 619 -25 802 -11 l91 6 63 -102 c58 -94 102 -161 153 -229 l20 -28 332
0 c311 0 332 1 328 18 -21 100 -30 367 -15 453 l13 67 75 17 c356 79 850 308
1150 532 240 179 346 292 381 403 22 69 25 97 27 278 l3 183 -188 -3 c-104 -2
-190 -1 -192 2 -3 3 -26 43 -53 90 -142 252 -361 469 -589 586 l-75 39 4 67
c12 180 57 326 122 396 l31 32 -66 -1 c-37 0 -97 -8 -134 -18z m185 -915 c40
-16 97 -79 98 -109 6 -89 -7 -125 -64 -171 -34 -27 -46 -31 -98 -30 -68 1
-115 30 -143 87 -64 137 69 281 207 223z"/>
</g>
</svg>
