<?xml version="1.0" encoding="UTF-8"?>
<svg enable-background="new 0 0 179.006 179.006" version="1.1" viewBox="0 0 179.01 179.01" xml:space="preserve" xmlns="http://www.w3.org/2000/svg">
	<g fill="#ffffff">
		<path d="m124.76 52.664c0-1.462-0.543-2.572-1.617-3.33-0.621-0.448-1.665-0.865-3.121-1.265v9.219c1.999-0.09 3.377-0.823 4.135-2.19 0.406-0.692 0.603-1.516 0.603-2.434z"/>
        <path d="m118.36 36.213c-1.551 0.06-2.637 0.525-3.3 1.402-0.662 0.877-0.985 1.796-0.985 2.751 0 1.158 0.382 2.059 1.152 2.721 0.782 0.65 1.82 1.11 3.121 1.366l0.012-8.24z"/>
        <path d="m119.17 67.42c11.128 0 20.162-9.022 20.162-20.15s-9.034-20.156-20.162-20.156-20.15 9.028-20.15 20.156c-1e-3 11.134 9.015 20.15 20.15 20.15zm-6.421-22.173c-1.211-1.122-1.826-2.679-1.826-4.666 0-1.778 0.644-3.377 1.951-4.803s3.121-2.154 5.484-2.172v-2.333h1.659v2.297c2.333 0.161 4.111 0.847 5.358 2.053 1.235 1.211 1.886 2.798 1.945 4.785h-3.067c-0.084-0.889-0.328-1.653-0.722-2.297-0.734-1.181-1.909-1.802-3.532-1.856v8.539c2.715 0.758 4.559 1.474 5.537 2.136 1.575 1.098 2.363 2.727 2.363 4.875 0 3.109-1.014 5.316-3.037 6.629-1.122 0.728-2.739 1.205-4.851 1.438v3.401h-1.659v-3.401c-3.395-0.221-5.71-1.426-6.928-3.61-0.662-1.175-0.996-2.775-0.996-4.785h3.109c0.101 1.599 0.352 2.769 0.758 3.509 0.722 1.319 2.088 2.059 4.069 2.226v-9.553c-2.548-0.485-4.415-1.29-5.615-2.412z"/>
        <path d="m84.655 19.16c0-1.092-0.406-1.927-1.211-2.5-0.465-0.334-1.247-0.644-2.345-0.949v6.916c1.492-0.066 2.542-0.615 3.109-1.641 0.292-0.52 0.447-1.128 0.447-1.826z"/>
        <path d="m79.852 6.832c-1.164 0.048-1.981 0.394-2.476 1.056-0.489 0.656-0.74 1.349-0.74 2.065 0 0.871 0.292 1.545 0.871 2.041 0.579 0.489 1.36 0.835 2.345 1.026v-6.188z"/>
        <path d="m80.455 30.234c8.342 0 15.114-6.772 15.114-15.12s-6.773-15.114-15.114-15.114-15.115 6.766-15.115 15.114c0 8.354 6.773 15.12 15.115 15.12zm-4.816-16.636c-0.913-0.841-1.366-2.005-1.366-3.497 0-1.331 0.489-2.536 1.468-3.604s2.351-1.617 4.105-1.629v-1.747h1.247v1.724c1.742 0.125 3.085 0.632 4.028 1.539 0.925 0.907 1.414 2.1 1.456 3.586h-2.303c-0.066-0.662-0.239-1.241-0.537-1.724-0.567-0.883-1.438-1.349-2.643-1.39v6.402c2.035 0.567 3.407 1.104 4.141 1.605 1.175 0.823 1.772 2.041 1.772 3.658 0 2.333-0.758 3.986-2.273 4.97-0.841 0.543-2.053 0.901-3.64 1.08v2.554h-1.247v-2.554c-2.554-0.167-4.29-1.068-5.191-2.709-0.501-0.883-0.758-2.082-0.758-3.592h2.345c0.066 1.199 0.257 2.076 0.561 2.631 0.549 0.991 1.569 1.545 3.055 1.671v-7.166c-1.911-0.364-3.319-0.966-4.22-1.808z"/>
        <path d="m70.114 86.412c-3.341-0.579-5.734-2.005-7.071-4.392-0.871-1.522-1.295-3.586-1.295-6.188h4.01c0.125 2.071 0.465 3.58 0.991 4.535 0.937 1.712 2.685 2.667 5.245 2.882v-12.357c-3.276-0.621-5.698-1.653-7.262-3.103-1.569-1.456-2.351-3.467-2.351-6.033 0-2.297 0.847-4.362 2.524-6.212 1.689-1.838 4.046-2.775 7.089-2.81v-3.013h2.154v2.971c3.007 0.215 5.316 1.098 6.916 2.655 1.617 1.563 2.458 3.622 2.536 6.182h-3.962c-0.113-1.146-0.418-2.136-0.931-2.971-0.955-1.522-2.47-2.327-4.559-2.399v11.039c3.509 0.985 5.877 1.909 7.136 2.763 2.047 1.42 3.061 3.52 3.061 6.301 0 4.022-1.307 6.874-3.914 8.568-1.08 0.692-2.619 1.152-4.415 1.498 5.221 0.179 10.418 1.02 15.43 2.53 4.732-4.726 7.667-11.248 7.667-18.461 0-14.392-11.677-26.057-26.057-26.057-14.386 0-26.057 11.665-26.057 26.057 0 7.435 3.121 14.124 8.121 18.867 4.856-1.581 9.904-2.53 14.994-2.852z"/>
        <path d="m67.978 65.009c0.991 0.847 2.345 1.438 4.034 1.772v-10.657c-1.993 0.078-3.419 0.68-4.266 1.814-0.853 1.134-1.271 2.321-1.271 3.562-1e-3 1.492 0.5 2.656 1.503 3.509z"/>
        <path d="m78.193 73.076c-0.806-0.573-2.142-1.116-4.04-1.629v11.922c2.584-0.125 4.362-1.068 5.346-2.834 0.519-0.907 0.776-1.963 0.776-3.151 1e-3 -1.897-0.692-3.323-2.082-4.308z"/>
        <path d="m162.4 138.85c3.18-3.324 3.473-9.475 2.954-17.704-3.741-0.257-9.261 0.37-11.212 0-4.738-9.428-11.546-16.779-21.242-21.248 0.328-6.152 1.152-11.808 4.708-14.75-8.646-0.597-15.979 5.257-20.639 10.621-4.195-4.35-10.394-7.817-17.704-10.257l-4.541 8.079c-13.515-4.66-28.343-4.606-41.774 0.137l-5.925-7.96c-0.012-0.024-0.036-0.048-0.054-0.066-9.267 3.067-17.781 7.87-24.416 14.786-4.314-0.328-3.825-9.076 1.772-7.667-9.105-6.206-14.13 10.806-5.316 12.978-7.345 10.496-8.049 33.027 1.772 41.297 1.432 12.423 3.628 24.088 9.672 31.911h19.822c-0.519-4.034-1.044-8.33-0.591-13.032 12.047 2.733 26.35 3.532 40.7 2.363 2.214 3.67 4.356 7.411 7.005 10.663h19.637c-0.71-5.197-1.504-10.639-0.084-15.979 4.726-0.889 29.029-7.065 45.456-24.172zm-27.09-26.344c2.697 0 4.875 2.184 4.875 4.869 0 2.703-2.178 4.881-4.875 4.881-2.685 0-4.875-2.19-4.875-4.881-6e-3 -2.679 2.19-4.869 4.875-4.869z"/>
	</g>
</svg>
